<?xml version="1.0" standalone="no"?>
<!DOCTYPE svg PUBLIC "-//W3C//DTD SVG 20010904//EN"
 "http://www.w3.org/TR/2001/REC-SVG-20010904/DTD/svg10.dtd">
<svg version="1.0" xmlns="http://www.w3.org/2000/svg"
 width="903.000000pt" height="903.000000pt" viewBox="0 0 903.000000 903.000000"
 preserveAspectRatio="xMidYMid meet">

<g transform="translate(0.000000,903.000000) scale(0.100000,-0.100000)"
fill="#000000" stroke="none">
<path d="M5930 7989 c-164 -25 -314 -100 -425 -213 -82 -84 -135 -170 -172
-281 -25 -73 -27 -94 -27 -235 0 -144 1 -161 27 -235 43 -120 82 -181 176
-275 95 -95 192 -152 316 -188 227 -67 502 -49 690 44 73 35 185 126 185 147
-1 7 -48 62 -105 122 -79 84 -107 108 -118 100 -118 -86 -191 -115 -312 -122
-201 -12 -355 66 -424 212 -38 82 -85 75 519 75 l539 0 7 37 c11 61 -4 234
-29 319 -33 116 -88 207 -177 296 -129 128 -297 195 -503 203 -56 2 -131 -1
-167 -6z m290 -335 c97 -44 177 -142 195 -237 l7 -37 -356 0 c-401 0 -370 -8
-335 84 38 103 144 193 253 216 66 14 174 3 236 -26z"/>
<path d="M6640 2365 c0 -102 -4 -185 -8 -185 -5 0 -17 9 -26 19 -10 11 -41 30
-69 42 -43 20 -68 24 -142 23 -114 -1 -184 -26 -258 -94 -157 -143 -167 -418
-21 -580 121 -134 358 -158 495 -49 l39 31 0 -46 0 -46 105 0 105 0 0 535 0
535 -110 0 -110 0 0 -185z m-104 -302 c24 -12 51 -38 69 -68 26 -43 30 -58 30
-124 0 -101 -31 -157 -107 -195 -78 -39 -157 -31 -219 21 -90 76 -93 261 -6
341 58 54 158 64 233 25z"/>
<path d="M2539 2260 c-178 -30 -280 -163 -239 -311 24 -87 106 -130 309 -164
119 -20 151 -36 151 -74 0 -48 -31 -66 -125 -69 -88 -4 -174 13 -247 48 -23
11 -43 19 -44 17 -1 -1 -18 -37 -37 -79 l-35 -77 42 -20 c113 -52 293 -73 415
-47 149 32 231 105 239 215 6 78 -11 123 -59 165 -46 39 -104 59 -250 85 -123
22 -146 32 -155 67 -5 20 0 32 20 52 48 48 215 41 342 -14 8 -4 74 127 74 148
0 12 -104 46 -177 57 -80 12 -155 13 -224 1z"/>
<path d="M3380 2259 c-119 -23 -237 -116 -287 -225 -57 -125 -37 -297 48 -404
157 -199 492 -213 665 -28 25 27 57 74 72 106 24 50 27 69 27 162 0 93 -3 112
-27 162 -83 177 -284 269 -498 227z m185 -188 c163 -74 163 -328 0 -402 -77
-36 -159 -18 -222 46 -130 135 -39 375 142 375 22 0 58 -9 80 -19z"/>
<path d="M5437 2260 c-46 -12 -91 -34 -134 -67 l-33 -24 0 45 0 46 -105 0
-105 0 0 -390 0 -390 110 0 110 0 0 228 c0 216 1 230 23 272 70 139 277 129
316 -15 6 -23 11 -134 11 -262 l0 -223 111 0 110 0 -3 278 c-5 309 -9 335 -74
410 -51 60 -126 93 -221 98 -43 2 -95 -1 -116 -6z"/>
<path d="M4062 1988 c5 -314 12 -349 90 -425 66 -65 125 -87 233 -87 97 -1
153 17 222 70 l33 25 0 -45 0 -46 105 0 105 0 0 390 0 390 -109 0 -109 0 -4
-232 c-3 -226 -4 -234 -28 -276 -35 -61 -80 -87 -157 -87 -70 0 -104 19 -138
76 -18 31 -20 56 -23 277 l-4 242 -110 0 -110 0 4 -272z"/>
</g>
</svg>
